<?xml version="1.0" encoding="utf-8"?>
<svg version="1.1" xmlns="http://www.w3.org/2000/svg" xmlns:xlink="http://www.w3.org/1999/xlink" width="20" height="30" x="0px" y="0px" viewBox="0 0 20 30" enable-background="new 0 0 20 30" xml:space="preserve">
  <path d="M10,0C4.5,0,0,4.5,0,9.9c0,2.2,1.4,5.8,4.3,11c2.1,3.7,4.1,6.7,4.2,6.9L10,30l1.5-2.2c0.1-0.1,2.1-3.2,4.2-6.9
  c2.9-5.2,4.3-8.8,4.3-11C20,4.5,15.5,0,10,0L10,0z M10,15c-2.9,0-5.2-2.3-5.2-5.1C4.8,7,7.1,4.7,10,4.7s5.2,2.3,5.2,5.1
  C15.2,12.7,12.9,15,10,15L10,15z"/>
</svg>
