<?xml version="1.0" encoding="utf-8"?>
<svg xmlns="http://www.w3.org/2000/svg" xmlns:xlink="http://www.w3.org/1999/xlink" x="0px" y="0px" viewBox="0 0 90 90" enable-background="new 0 0 90 90" xml:space="preserve">
  <path fill="#111111" d="M21.3,37.5c-9,0-16.3-7.3-16.3-16.2C5,12.3,12.3,5,21.3,5c9,0,16.3,7.3,16.3,16.2
  C37.6,30.2,30.3,37.5,21.3,37.5L21.3,37.5z M21.3,7.9c-7.4,0-13.4,6-13.4,13.3c0,7.4,6,13.3,13.4,13.3c7.4,0,13.4-6,13.4-13.3
  C34.7,13.9,28.7,7.9,21.3,7.9L21.3,7.9z M68.7,85c-9,0-16.3-7.3-16.3-16.2c0-9,7.3-16.2,16.3-16.2S85,59.8,85,68.8
  C85,77.7,77.7,85,68.7,85L68.7,85z M68.7,55.4c-7.4,0-13.4,6-13.4,13.3c0,7.4,6,13.3,13.4,13.3c7.4,0,13.4-6,13.4-13.3
  C82.1,61.4,76.1,55.4,68.7,55.4L68.7,55.4z M10.9,80.5l-2-2L77.6,9.9l2,2L10.9,80.5L10.9,80.5z"/>
</svg>
