<?xml version="1.0" encoding="utf-8"?>
<svg xmlns="http://www.w3.org/2000/svg" xmlns:xlink="http://www.w3.org/1999/xlink" x="0px" y="0px" viewBox="0 0 90 90" enable-background="new 0 0 90 90" xml:space="preserve" width="90" height="90">
  <path fill="#111111" d="M89.4,30.8c-0.4-0.3-0.8-0.3-1.3-0.1L44,47.9c-0.5-0.9-1.2-1.6-2.1-2.1L59.5,1.9c0.2-0.4,0.1-0.9-0.1-1.3
  C59.1,0.2,58.7,0,58.3,0c-6.4,0-11.7,5.7-16,17.3c-4.6,12.3-5,24-5,27.7c-2.8,0.6-4.9,3.1-4.9,6c0,0.5,0.1,0.9,0.1,1.3l-13.7,5
  c0.7-1.3,1.1-2.8,1.1-4.4c0-5.5-4.5-10-10-10c-5.5,0-10,4.5-10,10c0,5.5,4.5,10,10,10c1.4,0,2.8-0.3,4-0.8l19.8-7.2
  c0.2,0.3,0.4,0.5,0.7,0.8L27,75.4c-0.7,1.4-1.1,3-1.1,4.6c0,5.5,4.5,10,10,10c5.5,0,10-4.5,10-10c0-5.5-4.5-10-10-10
  c-1.5,0-3,0.4-4.3,1l5.3-14.1c0.6,0.2,1.2,0.3,1.8,0.3c2.9,0,5.4-2.1,6.1-4.8c0.1,0,0.2,0,0.3,0c4.1,0,15.4-0.4,27.4-4.8
  c11.7-4.2,17.4-9.4,17.5-15.8C90,31.4,89.8,31,89.4,30.8L89.4,30.8z M2.7,52.9c0-4,3.3-7.3,7.3-7.3c4,0,7.3,3.3,7.3,7.3
  c0,3-1.8,5.5-4.4,6.6l-0.4,0.1c-0.8,0.3-1.6,0.5-2.5,0.5C6,60.2,2.7,56.9,2.7,52.9L2.7,52.9z M43.1,80c0,4-3.3,7.3-7.3,7.3
  c-4,0-7.3-3.3-7.3-7.3c0-4,3.3-7.3,7.3-7.3C39.8,72.8,43.1,76,43.1,80L43.1,80z M44.9,18.2C49.2,6.6,53.5,3.7,56.2,3L40.1,43
  C40.3,38.2,41.1,28.3,44.9,18.2L44.9,18.2z M38.7,54.5c-1.9,0-3.5-1.6-3.5-3.5c0-1.9,1.6-3.5,3.5-3.5c1.9,0,3.4,1.5,3.5,3.4
  c0,0,0,0.1,0,0.1c0,0,0,0.1,0,0.1C42.1,53,40.6,54.5,38.7,54.5L38.7,54.5z M71.6,45.1c-10.2,3.7-20,4.4-24.9,4.6L87,34
  C86.2,36.6,83.3,40.9,71.6,45.1L71.6,45.1z"/>
</svg>
