<?xml version="1.0" encoding="utf-8"?>
<svg xmlns="http://www.w3.org/2000/svg" xmlns:xlink="http://www.w3.org/1999/xlink" x="0px" y="0px" viewBox="0 0 90 90" enable-background="new 0 0 90 90" xml:space="preserve">
  <path fill="#111111" d="M75.6,85H12.4C7.8,85,4,81.2,4,76.6V13.4C4,8.8,7.8,5,12.4,5h63.1c4.6,0,8.4,3.8,8.4,8.4v63.2
  C84,81.2,80.2,85,75.6,85L75.6,85z M81.2,70.2c-0.3,0.2-0.7,0.3-1.2,0.3c-1.3,0-2.3-1.1-2.3-2.3V56.7c0-1.3,1-2.3,2.3-2.3
  c0.4,0,0.8,0.1,1.2,0.3V36.5c-0.3,0.2-0.7,0.3-1.2,0.3c-1.3,0-2.3-1.1-2.3-2.3V22.9c0-1.3,1-2.3,2.3-2.3c0.4,0,0.8,0.1,1.2,0.3v-7.5
  c0-3.1-2.5-5.6-5.6-5.6H12.4c-3.1,0-5.6,2.5-5.6,5.6v63.2c0,3.1,2.5,5.6,5.6,5.6h63.1c3.1,0,5.6-2.5,5.6-5.6V70.2L81.2,70.2z
  M44,64.6c-10,0-18.2-8.2-18.2-18.2c0-10.1,8.2-18.2,18.2-18.2c10,0,18.2,8.2,18.2,18.2C62.3,56.4,54.1,64.6,44,64.6L44,64.6z
  M44,31c-8,0-14.6,6.2-15.3,14h7.8c0.7-3.6,3.8-6.3,7.5-6.3c4.2,0,7.7,3.4,7.7,7.7c0,4.2-3.4,7.7-7.7,7.7c-3.8,0-6.9-2.7-7.5-6.3
  h-7.8c0.7,7.8,7.3,14,15.3,14c8.5,0,15.4-6.9,15.4-15.4C59.5,37.9,52.5,31,44,31L44,31z M44,24.2l-5.4-8.7L41,14l3,4.9l3-4.9
  l2.4,1.5L44,24.2L44,24.2z"/>
</svg>
