<?xml version="1.0" encoding="utf-8"?>
<svg xmlns="http://www.w3.org/2000/svg" xmlns:xlink="http://www.w3.org/1999/xlink" x="0px" y="0px" viewBox="0 0 90 90" enable-background="new 0 0 90 90" xml:space="preserve" width="90" height="90">
  <path fill="#111111" d="M59.9,44.7c-2,0-3.7-1.7-3.7-3.7c0-2,1.6-3.7,3.7-3.7c2,0,3.7,1.6,3.7,3.7C63.6,43,61.9,44.7,59.9,44.7
  L59.9,44.7z M53.8,61.8c-2,0-3.7-1.7-3.7-3.7c0-2,1.6-3.7,3.7-3.7c2,0,3.7,1.6,3.7,3.7C57.5,60.2,55.8,61.8,53.8,61.8L53.8,61.8z
  M44.9,49.6c-2,0-3.7-1.7-3.7-3.7c0-2,1.6-3.7,3.7-3.7c2,0,3.7,1.6,3.7,3.7C48.5,47.9,46.9,49.6,44.9,49.6L44.9,49.6z M35.4,61.8
  c-2,0-3.7-1.7-3.7-3.7c0-2,1.6-3.7,3.7-3.7s3.7,1.6,3.7,3.7C39.1,60.2,37.4,61.8,35.4,61.8L35.4,61.8z M29.3,44.7
  c-2,0-3.7-1.7-3.7-3.7c0-2,1.6-3.7,3.7-3.7c2,0,3.7,1.6,3.7,3.7C32.9,43,31.3,44.7,29.3,44.7L29.3,44.7z M43.6,77.4V49.6h1.2h1.2
  v27.8H43.6L43.6,77.4z M73.7,46.2c-0.2,7.1-2.1,13.7-5.5,19.4l3.7,3.7l-1.7,1.7l-3.4-3.4C61.3,75.6,53.4,80,44.9,80h-0.1
  c-8.3,0-16.1-4.3-21.5-11.9l-3,3l-1.7-1.7l3.3-3.3c-3.6-5.8-5.7-13-5.8-20.3H12v-2.5h4.1c0.2-5.1,1.3-10,3.3-14.6
  c0.7-1.7,1.6-3.2,2.5-4.8l-3.8-3.8l1.7-1.7l3.5,3.5c2-2.8,4.4-5.2,7-7.1c4.4-3.2,9.4-4.8,14.6-4.8c4.8,0,9.6,1.5,13.8,4.3
  c2.9,1.9,5.5,4.4,7.7,7.4l3.3-3.3l1.7,1.7l-3.6,3.6c1,1.5,1.9,3.2,2.6,4.9c2,4.6,3.1,9.8,3.3,15.1H78v2.5H73.7L73.7,46.2z
  M44.9,12.5c-3.9,0-7.8,1.1-11.3,3.1h22.5C52.7,13.5,48.8,12.5,44.9,12.5L44.9,12.5z M57.5,16.4v0.4l0.1-0.3
  C57.5,16.5,57.5,16.4,57.5,16.4L57.5,16.4z M68.2,29.7v1.2H46.1v11.3h-1.2h-1.2V30.9H21.6v-1.1c-2,4.5-3,9.5-3.1,14.7
  c0,0.2,0,0.4,0,0.5c0,7.5,2.1,14.8,5.9,20.6c5,7.6,12.4,12,20.4,12l0.1,1.2v-1.2c8.1,0,15.7-4.5,20.7-12.4
  c3.7-5.8,5.7-12.8,5.7-20.2C71.3,39.7,70.2,34.4,68.2,29.7L68.2,29.7z"/>
</svg>
