<?xml version="1.0" encoding="utf-8"?>
<svg xmlns="http://www.w3.org/2000/svg" xmlns:xlink="http://www.w3.org/1999/xlink" x="0px" y="0px" viewBox="0 0 90 90" enable-background="new 0 0 90 90" xml:space="preserve">
  <path fill="#111111" d="M45.6,39v14.5c7.8-0.1,16.8,0.1,17.1,8.5c0.2,5.9-4.7,11-12.6,12.8c-1.4,0.3-2.9,0.5-4.5,0.6v5.1h-3.1v-5.1
  c-7-0.4-13.9-3.6-16.9-10.4l2.8-1.3c2.5,5.5,8.2,8.2,14.1,8.6V56.6c-5.7,0.1-11-0.1-13.8-3c-1.4-1.4-2-3.3-1.9-5.7
  c0.3-6.1,5.1-10.4,12.8-11.7c0.9-0.2,1.9-0.3,2.9-0.3v-4.5h3.1v4.5c6.3,0.4,12.5,3.1,14.6,8.4l-2.8,1.2C55.8,41.6,50.8,39.4,45.6,39
  L45.6,39z M45.6,72.3c1.3-0.1,2.5-0.3,3.8-0.5c4.9-1.1,10.5-4.4,10.3-9.7c-0.2-5.2-5.4-5.7-14-5.5V72.3L45.6,72.3z M42.6,39
  c-0.8,0-1.6,0.1-2.4,0.2c-2.3,0.4-9.8,2.2-10.2,8.9c-0.1,1.5,0.2,2.6,1,3.4c1.9,2,6.7,2.1,11.6,2V39L42.6,39z M80,59
  c0,17.1-14.7,29-35.7,29C23.8,88,10,76.3,10,59c0-14.4,9.5-30.6,25.7-34.9l-9.3-14.1c-0.3-0.5-0.3-1,0-1.5c0.3-0.5,0.8-0.7,1.4-0.7
  L38,9.1l5.3-6.6C43.6,2.2,44,2,44.4,2c0.4,0,0.9,0.2,1.1,0.6l4.8,6.9l11.3-2.3c0.6-0.1,1.1,0.1,1.4,0.6c0.3,0.5,0.3,1.1,0,1.5
  l-9.7,14.9C69.5,28.8,80,44.6,80,59L80,59z M59,10.7l-9,1.8c-0.5,0.1-1.1-0.1-1.4-0.6l-4.3-6.1l-4.6,5.7C39.4,11.8,39,12,38.5,12
  L30.4,11l8.3,12.5c0.3,0,0.5-0.1,0.8-0.1c1.6-0.2,3.2-0.3,4.8-0.3c2.2,0,4.3,0.2,6.3,0.6L59,10.7L59,10.7z M44.3,25.8
  c-1.5,0-3,0.1-4.4,0.3C26.6,28,12.8,40.8,12.8,59c0,15.7,12.7,26.2,31.5,26.2c19.4,0,32.9-10.8,32.9-26.2
  C77.2,45.4,65.5,25.8,44.3,25.8L44.3,25.8z"/>
</svg>
