<?xml version="1.0" encoding="utf-8"?>
<svg xmlns="http://www.w3.org/2000/svg" xmlns:xlink="http://www.w3.org/1999/xlink" x="0px" y="0px" viewBox="0 0 90 90" enable-background="new 0 0 90 90" xml:space="preserve" width="90" height="90">
	<path fill="#111111" d="M78.2,80H12.7C7.9,80,4,76.1,4,71.3V18.7c0-4.8,3.9-8.7,8.7-8.7h65.5c4.8,0,8.7,3.9,8.7,8.7v52.5
	C87,76.1,83.1,80,78.2,80L78.2,80z M84.1,18.7c0-3.2-2.6-5.8-5.8-5.8H12.7c-3.2,0-5.8,2.6-5.8,5.8V32h77.2V18.7L84.1,18.7z
	M84.1,34.9H6.9v36.4c0,3.2,2.6,5.8,5.8,5.8h65.5c3.2,0,5.8-2.6,5.8-5.8V34.9L84.1,34.9z M17.8,28.3c-3.2,0-5.8-2.6-5.8-5.8
	c0-3.2,2.6-5.8,5.8-5.8c3.2,0,5.8,2.6,5.8,5.8C23.6,25.7,21,28.3,17.8,28.3L17.8,28.3z M17.8,19.6c-1.6,0-2.9,1.3-2.9,2.9
	c0,1.6,1.3,2.9,2.9,2.9c1.6,0,2.9-1.3,2.9-2.9C20.7,20.9,19.4,19.6,17.8,19.6L17.8,19.6z M32.4,28.3c-3.2,0-5.8-2.6-5.8-5.8
	c0-3.2,2.6-5.8,5.8-5.8s5.8,2.6,5.8,5.8C38.2,25.7,35.6,28.3,32.4,28.3L32.4,28.3z M32.4,19.6c-1.6,0-2.9,1.3-2.9,2.9
	c0,1.6,1.3,2.9,2.9,2.9c1.6,0,2.9-1.3,2.9-2.9C35.3,20.9,34,19.6,32.4,19.6L32.4,19.6z M47,28.3c-3.2,0-5.8-2.6-5.8-5.8
	c0-3.2,2.6-5.8,5.8-5.8c3.2,0,5.8,2.6,5.8,5.8C52.8,25.7,50.2,28.3,47,28.3L47,28.3z M47,19.6c-1.6,0-2.9,1.3-2.9,2.9
	c0,1.6,1.3,2.9,2.9,2.9c1.6,0,2.9-1.3,2.9-2.9C49.9,20.9,48.6,19.6,47,19.6L47,19.6z"/>
</svg>
