<?xml version="1.0" encoding="utf-8"?>
<svg xmlns="http://www.w3.org/2000/svg" xmlns:xlink="http://www.w3.org/1999/xlink" x="0px" y="0px" viewBox="0 0 25 25" enable-background="new 0 0 25 25" xml:space="preserve" width="25" height="25">
	<path fill="#333333" d="M12.5,25C5.6,25,0,19.4,0,12.5C0,5.6,5.6,0,12.5,0C19.4,0,25,5.6,25,12.5C25,19.4,19.4,25,12.5,25L12.5,25z
	M12.5,0.9C6.1,0.9,0.9,6.1,0.9,12.5c0,6.4,5.2,11.6,11.6,11.6c6.4,0,11.6-5.2,11.6-11.6C24.1,6.1,18.9,0.9,12.5,0.9L12.5,0.9z
	M11.6,20.2V9.3h1.8v10.9H11.6L11.6,20.2z M12.5,7.5c-0.8,0-1.4-0.6-1.4-1.4c0-0.8,0.6-1.4,1.4-1.4c0.8,0,1.4,0.6,1.4,1.4
	C13.9,6.9,13.3,7.5,12.5,7.5L12.5,7.5z"/>
</svg>
