<?xml version="1.0" encoding="utf-8"?>
<svg xmlns="http://www.w3.org/2000/svg" xmlns:xlink="http://www.w3.org/1999/xlink" x="0px" y="0px" viewBox="0 0 29 18" enable-background="new 0 0 29 18" xml:space="preserve" width="29" height="18">
  <path fill="#333333" d="M26.4,0H2.6C1.2,0,0,1.2,0,2.6v12.9C0,16.8,1.2,18,2.6,18h23.7c1.5,0,2.6-1.1,2.6-2.6V2.6
  C29,1.2,27.8,0,26.4,0L26.4,0z M26.4,1c0.2,0,0.3,0,0.4,0.1l-12.3,9.5L2.2,1.1C2.3,1.1,2.5,1,2.6,1H26.4L26.4,1z M2.6,17
  c-0.2,0-0.3,0-0.4-0.1l8.4-6.5L9.8,9.7l-8.4,6.5c-0.2-0.2-0.3-0.5-0.3-0.8V2.6c0-0.3,0.1-0.6,0.3-0.8l13.2,10.2L27.7,1.7
  c0.2,0.2,0.3,0.5,0.3,0.8v12.9c0,0.3-0.1,0.6-0.3,0.8l-8.5-6.5l-0.8,0.7l8.4,6.5c-0.1,0-0.3,0.1-0.4,0.1H2.6L2.6,17z"/>
</svg>
