<?xml version="1.0" encoding="utf-8"?>
<svg xmlns="http://www.w3.org/2000/svg" xmlns:xlink="http://www.w3.org/1999/xlink" x="0px" y="0px" viewBox="0 0 15 23" enable-background="new 0 0 15 23" xml:space="preserve" width="15" height="23">
  <path fill="#111111" d="M7.5,0C3.4,0,0,3.4,0,7.6c0,1.7,1.1,4.4,3.3,8.4c1.5,2.8,3.1,5.2,3.1,5.3L7.5,23l1.1-1.7
  c0.1-0.1,1.6-2.4,3.1-5.3c2.2-4,3.3-6.7,3.3-8.4C15,3.4,11.6,0,7.5,0L7.5,0z M7.5,11.5c-2.1,0-3.9-1.8-3.9-3.9
  c0-2.2,1.7-3.9,3.9-3.9c2.1,0,3.9,1.8,3.9,3.9C11.4,9.7,9.6,11.5,7.5,11.5L7.5,11.5z"/>
</svg>
