<?xml version="1.0" encoding="utf-8"?>
<svg xmlns="http://www.w3.org/2000/svg" xmlns:xlink="http://www.w3.org/1999/xlink" x="0px" y="0px" viewBox="0 0 24 16" enable-background="new 0 0 24 16" xml:space="preserve" width="24" height="16">
  <path fill="#111111" d="M12,9.8L1.1,1.3C1.4,1.1,1.8,1,2.2,1h19.6c0.4,0,0.8,0.1,1.1,0.3L12,9.8L12,9.8z M23.6,15.1l-7.7-6l-0.7,0.5
  l7.7,6c-0.3,0.2-0.7,0.3-1.1,0.3H2.2c-0.4,0-0.8-0.1-1.1-0.3l7.7-6.1L8.1,9.1l-7.7,6C0.2,14.8,0,14.3,0,13.9V3.1
  c0-0.5,0.2-0.9,0.4-1.3l11.6,9l11.6-9C23.8,2.2,24,2.7,24,3.1v10.7C24,14.3,23.8,14.8,23.6,15.1L23.6,15.1z"/>
</svg>
