<svg xmlns="http://www.w3.org/2000/svg" xmlns:xlink="http://www.w3.org/1999/xlink" preserveAspectRatio="xMidYMid" width="106.969" height="76" viewBox="0 0 106.969 76">
  <defs>
    <style>
      .cls-1 {
        fill: #fff;
        fill-rule: evenodd;
      }
    </style>
  </defs>
  <path d="M105.014,74.010 C103.706,75.257 101.821,75.881 99.360,75.881 L95.366,75.881 L95.366,61.603 L99.780,61.603 C102.052,61.603 103.819,62.215 105.082,63.439 C106.345,64.663 106.977,66.385 106.977,68.605 C106.977,70.962 106.323,72.764 105.014,74.010 ZM99.721,63.556 L97.700,63.556 L97.700,73.918 L99.360,73.918 C102.797,73.918 104.516,72.173 104.516,68.683 C104.516,65.265 102.918,63.556 99.721,63.556 ZM81.213,64.504 L81.135,64.504 L81.184,65.138 C81.275,66.349 81.321,67.456 81.321,68.459 L81.321,75.881 L79.202,75.881 L79.202,61.603 L82.034,61.603 L89.036,72.922 L89.094,72.922 C89.081,72.772 89.055,72.227 89.016,71.286 C88.977,70.345 88.957,69.611 88.957,69.084 L88.957,61.603 L91.096,61.603 L91.096,75.881 L88.235,75.881 L81.213,64.504 ZM79.810,41.313 L71.471,41.313 L71.471,50.139 C71.471,50.614 71.078,51.000 70.593,51.000 C70.109,51.000 69.716,50.614 69.716,50.139 L69.716,41.313 L54.065,41.313 L54.065,50.139 C54.065,50.614 53.672,51.000 53.187,51.000 C52.703,51.000 52.310,50.614 52.310,50.139 L52.310,41.313 L36.659,41.313 L36.659,50.139 C36.659,50.614 36.266,51.000 35.782,51.000 C35.297,51.000 34.904,50.614 34.904,50.139 L34.904,41.313 L26.564,41.313 C26.282,41.313 26.017,41.180 25.852,40.955 C25.687,40.730 25.643,40.442 25.732,40.179 L34.949,13.071 C35.068,12.720 35.404,12.483 35.782,12.483 C36.159,12.483 36.494,12.720 36.614,13.071 L39.385,21.221 L43.652,8.672 C43.771,8.320 44.107,8.083 44.484,8.083 C44.862,8.083 45.198,8.320 45.317,8.672 L47.462,14.980 L52.355,0.589 C52.474,0.237 52.810,-0.000 53.187,-0.000 C53.565,-0.000 53.900,0.237 54.020,0.589 L58.913,14.979 L61.058,8.672 C61.177,8.320 61.513,8.083 61.890,8.083 C62.268,8.083 62.603,8.320 62.723,8.672 L66.990,21.221 L69.761,13.071 C69.880,12.720 70.216,12.483 70.593,12.483 C70.971,12.483 71.306,12.720 71.426,13.071 L80.643,40.179 C80.732,40.442 80.687,40.730 80.523,40.955 C80.358,41.180 80.093,41.313 79.810,41.313 ZM35.782,16.065 L27.783,39.590 L34.904,39.590 L34.904,34.226 C34.904,33.751 35.297,33.365 35.782,33.365 C36.266,33.365 36.659,33.751 36.659,34.226 L36.659,39.590 L39.094,39.590 L41.437,32.698 L35.782,16.065 ZM44.484,11.666 L40.310,23.942 L42.362,29.977 L46.536,17.701 L44.484,11.666 ZM53.187,3.582 L40.944,39.590 L52.310,39.590 L52.310,34.791 L47.802,30.126 C47.469,29.780 47.483,29.235 47.835,28.908 C48.187,28.581 48.742,28.595 49.076,28.940 L52.310,32.288 L52.310,25.608 C52.310,25.132 52.703,24.746 53.187,24.746 C53.672,24.746 54.065,25.132 54.065,25.608 L54.065,32.343 L57.294,28.945 C57.625,28.598 58.180,28.578 58.534,28.903 C58.889,29.227 58.908,29.772 58.578,30.120 L54.065,34.869 L54.065,39.590 L65.431,39.590 L53.187,3.582 ZM61.890,11.666 L59.838,17.701 L64.013,29.977 L66.065,23.942 L61.890,11.666 ZM70.593,16.065 L64.938,32.698 L67.281,39.590 L69.716,39.590 L69.716,34.226 C69.716,33.751 70.109,33.365 70.593,33.365 C71.078,33.365 71.471,33.751 71.471,34.226 L71.471,39.590 L78.592,39.590 L70.593,16.065 ZM18.791,76.076 C16.636,76.076 14.981,75.436 13.826,74.157 C12.670,72.878 12.092,71.060 12.092,68.703 C12.092,66.346 12.673,64.536 13.835,63.273 C14.998,62.010 16.656,61.379 18.811,61.379 C20.933,61.379 22.574,62.020 23.733,63.302 C24.892,64.585 25.471,66.392 25.471,68.722 C25.471,71.047 24.890,72.853 23.728,74.142 C22.566,75.431 20.920,76.076 18.791,76.076 ZM21.941,64.738 C21.241,63.833 20.198,63.381 18.811,63.381 C17.411,63.381 16.355,63.833 15.642,64.738 C14.929,65.643 14.573,66.971 14.573,68.722 C14.573,70.480 14.927,71.813 15.637,72.721 C16.347,73.630 17.398,74.084 18.791,74.084 C20.178,74.084 21.225,73.634 21.931,72.736 C22.637,71.838 22.991,70.500 22.991,68.722 C22.991,66.971 22.641,65.643 21.941,64.738 ZM3.809,70.539 L2.325,70.539 L2.325,75.881 L-0.009,75.881 L-0.009,61.603 L4.102,61.603 C5.886,61.603 7.222,61.968 8.111,62.697 C8.999,63.426 9.444,64.500 9.444,65.920 C9.444,67.411 8.956,68.553 7.979,69.347 C7.002,70.142 5.612,70.539 3.809,70.539 ZM6.290,64.162 C5.788,63.758 5.007,63.556 3.946,63.556 L2.325,63.556 L2.325,68.576 L3.565,68.576 C4.763,68.576 5.642,68.368 6.202,67.951 C6.761,67.534 7.041,66.883 7.041,65.998 C7.041,65.177 6.791,64.566 6.290,64.162 ZM37.163,62.638 C38.048,63.329 38.491,64.370 38.491,65.763 C38.491,67.541 37.566,68.807 35.717,69.562 L39.750,75.881 L37.094,75.881 L33.676,70.177 L31.372,70.177 L31.372,75.881 L29.038,75.881 L29.038,61.603 L33.071,61.603 C34.913,61.603 36.277,61.948 37.163,62.638 ZM31.372,63.576 L31.372,68.244 L32.993,68.244 C34.080,68.244 34.868,68.042 35.356,67.638 C35.844,67.235 36.088,66.636 36.088,65.841 C36.088,65.034 35.825,64.455 35.297,64.103 C34.770,63.752 33.976,63.576 32.915,63.576 L31.372,63.576 ZM43.607,50.139 L43.607,43.897 C43.607,43.421 44.000,43.035 44.484,43.035 C44.969,43.035 45.362,43.421 45.362,43.897 L45.362,50.139 C45.362,50.614 44.969,51.000 44.484,51.000 C44.000,51.000 43.607,50.614 43.607,50.139 ZM51.452,63.605 L47.252,63.605 L47.252,75.881 L44.918,75.881 L44.918,63.605 L40.719,63.605 L40.719,61.603 L51.452,61.603 L51.452,63.605 ZM61.890,51.000 C61.406,51.000 61.013,50.614 61.013,50.139 L61.013,43.897 C61.013,43.421 61.406,43.035 61.890,43.035 C62.375,43.035 62.768,43.421 62.768,43.897 L62.768,50.139 C62.768,50.614 62.375,51.000 61.890,51.000 ZM56.473,73.879 L62.518,73.879 L62.518,75.881 L54.139,75.881 L54.139,61.603 L56.473,61.603 L56.473,73.879 ZM71.475,61.545 L76.817,75.881 L74.336,75.881 L72.911,71.916 L67.452,71.916 L66.055,75.881 L63.594,75.881 L68.936,61.545 L71.475,61.545 ZM72.295,69.904 L70.957,66.017 C70.860,65.757 70.725,65.347 70.552,64.787 C70.380,64.227 70.261,63.817 70.196,63.556 C70.020,64.357 69.763,65.233 69.424,66.183 L68.135,69.904 L72.295,69.904 Z" class="cls-1"/>
</svg>
